<?xml version="1.0" encoding="UTF-8"?>
<svg width="24px" height="24px" viewBox="0 0 24 24" version="1.1" xmlns="http://www.w3.org/2000/svg" xmlns:xlink="http://www.w3.org/1999/xlink">
    <!-- Generator: Sketch 58 (84663) - https://sketch.com -->
    <title>Icon / about</title>
    <desc>Created with Sketch.</desc>
    <g id="Icon-/-about" stroke="none" stroke-width="1" fill="none" fill-rule="evenodd">
        <path d="M20.5315186,6.99 C20.3915186,6.44 19.8415186,6.12 19.2915186,6.24 C16.9115186,6.77 14.2615186,7 11.7815186,7 C9.3015186,7 6.6515186,6.77 4.2715186,6.24 C3.7215186,6.12 3.1715186,6.44 3.0315186,6.99 C2.8915186,7.55 3.2315186,8.12 3.7815186,8.25 C5.3915186,8.61 7.1315186,8.86 8.7815186,9 L8.7815186,21 C8.7815186,21.55 9.2315186,22 9.7815186,22 C10.3315186,22 10.7815186,21.55 10.7815186,21 L10.7815186,16 L12.7815186,16 L12.7815186,21 C12.7815186,21.55 13.2315186,22 13.7815186,22 C14.3315186,22 14.7815186,21.55 14.7815186,21 L14.7815186,9 C16.4315186,8.86 18.1715186,8.61 19.7715186,8.25 C20.3315186,8.12 20.6715186,7.55 20.5315186,6.99 Z M11.7815186,6 C12.8815186,6 13.7815186,5.1 13.7815186,4 C13.7815186,2.9 12.8815186,2 11.7815186,2 C10.6815186,2 9.7815186,2.9 9.7815186,4 C9.7815186,5.1 10.6815186,6 11.7815186,6 Z" id="Shape" fill="#000000" fill-rule="nonzero"></path>
    </g>
</svg>