<?xml version="1.0" encoding="UTF-8"?>
<svg width="24px" height="24px" viewBox="0 0 24 24" version="1.1" xmlns="http://www.w3.org/2000/svg" xmlns:xlink="http://www.w3.org/1999/xlink">
    <!-- Generator: Sketch 58 (84663) - https://sketch.com -->
    <title>Icon / add</title>
    <desc>Created with Sketch.</desc>
    <g id="Icon-/-add" stroke="none" stroke-width="1" fill="none" fill-rule="evenodd">
        <path d="M12,5 C12.5522847,5 13,5.44771525 13,6 L13,6 L13,11 L18,11 C18.5128358,11 18.9355072,11.3860402 18.9932723,11.8833789 L19,12 C19,12.5522847 18.5522847,13 18,13 L18,13 L13,13 L13,18 C13,18.5128358 12.6139598,18.9355072 12.1166211,18.9932723 L12,19 C11.4477153,19 11,18.5522847 11,18 L11,18 L11,13 L6,13 C5.48716416,13 5.06449284,12.6139598 5.00672773,12.1166211 L5,12 C5,11.4477153 5.44771525,11 6,11 L6,11 L11,11 L11,6 C11,5.48716416 11.3860402,5.06449284 11.8833789,5.00672773 Z" id="Combined-Shape" fill="#000000" fill-rule="nonzero"></path>
    </g>
</svg>