<?xml version="1.0" encoding="UTF-8"?>
<svg width="24px" height="24px" viewBox="0 0 24 24" version="1.1" xmlns="http://www.w3.org/2000/svg" xmlns:xlink="http://www.w3.org/1999/xlink">
    <!-- Generator: Sketch 58 (84663) - https://sketch.com -->
    <title>Icon / edit</title>
    <desc>Created with Sketch.</desc>
    <g id="Icon-/-edit" stroke="none" stroke-width="1" fill="none" fill-rule="evenodd">
        <path d="M13.8297459,6.8373837 L17.1626163,10.1702541 L7.4572976,19.8666852 C7.39730593,19.9333426 7.31731704,19.9750035 7.23232884,19.9916678 L7.14622969,20 L4.44438272,20 C4.22317888,20 4.0441091,19.8455084 4.00704673,19.6363986 L4,19.5556173 L4,16.8537703 C4,16.7604499 4.02499653,16.6771282 4.07498958,16.603805 L4.13331482,16.5338147 L13.8297459,6.8373837 Z M14.7807249,5.88640467 L16.4071657,4.25996389 C16.7248993,3.94223025 17.2218673,3.91575244 17.5694734,4.18053048 L17.660325,4.25996389 L19.7400361,6.33967505 C20.0577698,6.65740869 20.0842476,7.15437671 19.8194695,7.50198275 L19.7400361,7.59283433 L18.1135953,9.2192751 L14.7807249,5.88640467 L16.4071657,4.25996389 L14.7807249,5.88640467 Z" id="Shape" fill="#000000" fill-rule="nonzero"></path>
    </g>
</svg>