<?xml version="1.0" encoding="UTF-8"?>
<svg width="40px" height="40px" viewBox="0 0 40 40" version="1.1" xmlns="http://www.w3.org/2000/svg" xmlns:xlink="http://www.w3.org/1999/xlink">
    <!-- Generator: Sketch 58 (84663) - https://sketch.com -->
    <title>Icon / pause_big</title>
    <desc>Created with Sketch.</desc>
    <g id="Icon-/-pause_big" stroke="none" stroke-width="1" fill="none" fill-rule="evenodd">
        <path d="M15.8333333,5 C16.2454212,5 16.9224228,6.32441107 17.864338,8.97323321 L17.9700855,9.27299703 L17.9696667,28.065 L19.7006516,28.3612983 C19.8735635,28.3908524 20,28.540733 20,28.7161523 L20,30.1889614 C20,30.3877839 19.8388225,30.5489614 19.64,30.5489614 L17.3526667,30.548 L17.0342695,34.6677911 C17.019753,34.8552735 16.8633873,35 16.6753438,35 L14.9913229,35 C14.8032794,35 14.6469137,34.8552735 14.6323972,34.6677911 L14.3136667,30.548 L12.0266667,30.5489614 C11.8278442,30.5489614 11.6666667,30.3877839 11.6666667,30.1889614 L11.6666667,28.7161523 C11.6666667,28.540733 11.7931032,28.3908524 11.9660151,28.3612983 L13.6956667,28.065 L13.6965812,9.27299703 C14.6937322,6.42433234 15.4059829,5 15.8333333,5 Z M26.6753438,5 C26.8633873,5 27.019753,5.14472654 27.0342695,5.33220891 L27.0342695,5.33220891 L27.3526667,9.452 L29.64,9.45103858 C29.8388225,9.45103858 30,9.61221607 30,9.81103858 L30,9.81103858 L30,11.2838477 C30,11.459267 29.8735635,11.6091476 29.7006516,11.6387017 L29.7006516,11.6387017 L27.9696667,11.935 L27.9700855,30.727003 L27.864338,31.0267668 C26.9224228,33.6755889 26.2454212,35 25.8333333,35 C25.4059829,35 24.6937322,33.5756677 23.6965812,30.727003 L23.6965812,30.727003 L23.6956667,11.935 L21.9660151,11.6387017 C21.7931032,11.6091476 21.6666667,11.459267 21.6666667,11.2838477 L21.6666667,11.2838477 L21.6666667,9.81103858 C21.6666667,9.61221607 21.8278442,9.45103858 22.0266667,9.45103858 L22.0266667,9.45103858 L24.3136667,9.452 L24.6323972,5.33220891 C24.6469137,5.14472654 24.8032794,5 24.9913229,5 L24.9913229,5 Z" id="Combined-Shape" fill="#007AFF" fill-rule="nonzero"></path>
    </g>
</svg>