<?xml version="1.0" encoding="UTF-8"?>
<svg width="24px" height="24px" viewBox="0 0 24 24" version="1.1" xmlns="http://www.w3.org/2000/svg" xmlns:xlink="http://www.w3.org/1999/xlink">
    <!-- Generator: Sketch 58 (84663) - https://sketch.com -->
    <title>Icon / pause</title>
    <desc>Created with Sketch.</desc>
    <g id="Icon-/-pause" stroke="none" stroke-width="1" fill="none" fill-rule="evenodd">
        <path d="M9.5,3 C9.74420024,3 10.1434483,3.77514685 10.6977441,5.32544056 L10.7820513,5.56379822 L10.782,16.839 L11.820391,17.016779 C11.9241381,17.0345114 12,17.1244398 12,17.2296914 L12,18.1133769 C12,18.2326704 11.9032935,18.3293769 11.784,18.3293769 L10.411,18.329 L10.2205617,20.8006747 C10.2118518,20.9131641 10.1180324,21 10.0052063,21 L8.99479374,21 C8.88196763,21 8.78814822,20.9131641 8.77943832,20.8006747 L8.588,18.329 L7.216,18.3293769 C7.09670649,18.3293769 7,18.2326704 7,18.1133769 L7,17.2296914 C7,17.1244398 7.07586192,17.0345114 7.17960903,17.016779 L8.217,16.839 L8.21794872,5.56379822 C8.81623932,3.85459941 9.24358974,3 9.5,3 Z M16.0052063,3 C16.1180324,3 16.2118518,3.08683593 16.2205617,3.19932534 L16.2205617,3.19932534 L16.411,5.671 L17.784,5.67062315 C17.9032935,5.67062315 18,5.76732964 18,5.88662315 L18,5.88662315 L18,6.77030859 C18,6.87556021 17.9241381,6.96548857 17.820391,6.98322101 L17.820391,6.98322101 L16.782,7.161 L16.7820513,18.4362018 L16.6977441,18.6745594 C16.1434483,20.2248531 15.7442002,21 15.5,21 C15.2435897,21 14.8162393,20.1454006 14.2179487,18.4362018 L14.2179487,18.4362018 L14.217,7.161 L13.179609,6.98322101 C13.0758619,6.96548857 13,6.87556021 13,6.77030859 L13,6.77030859 L13,5.88662315 C13,5.76732964 13.0967065,5.67062315 13.216,5.67062315 L13.216,5.67062315 L14.588,5.671 L14.7794383,3.19932534 C14.7881482,3.08683593 14.8819676,3 14.9947937,3 L14.9947937,3 Z" id="Combined-Shape" fill="#007AFF" fill-rule="nonzero"></path>
    </g>
</svg>