<?xml version="1.0" encoding="UTF-8"?>
<svg width="24px" height="24px" viewBox="0 0 24 24" version="1.1" xmlns="http://www.w3.org/2000/svg" xmlns:xlink="http://www.w3.org/1999/xlink">
    <!-- Generator: Sketch 58 (84663) - https://sketch.com -->
    <title>Icon / playlist_add</title>
    <desc>Created with Sketch.</desc>
    <g id="Icon-/-playlist_add" stroke="none" stroke-width="1" fill="none" fill-rule="evenodd">
        <path d="M13,9 L3,9 C2.45,9 2,9.45 2,10 C2,10.55 2.45,11 3,11 L13,11 C13.55,11 14,10.55 14,10 C14,9.45 13.55,9 13,9 Z M13,5 L3,5 C2.45,5 2,5.45 2,6 C2,6.55 2.45,7 3,7 L13,7 C13.55,7 14,6.55 14,6 C14,5.45 13.55,5 13,5 Z M18,13 L18,10 C18,9.45 17.55,9 17,9 C16.45,9 16,9.45 16,10 L16,13 L13,13 C12.45,13 12,13.45 12,14 C12,14.55 12.45,15 13,15 L16,15 L16,18 C16,18.55 16.45,19 17,19 C17.55,19 18,18.55 18,18 L18,15 L21,15 C21.55,15 22,14.55 22,14 C22,13.45 21.55,13 21,13 L18,13 Z M3,15 L9,15 C9.55,15 10,14.55 10,14 C10,13.45 9.55,13 9,13 L3,13 C2.45,13 2,13.45 2,14 C2,14.55 2.45,15 3,15 Z" id="Shape" fill="#000000" fill-rule="nonzero"></path>
    </g>
</svg>