<?xml version="1.0" encoding="UTF-8"?>
<svg width="24px" height="24px" viewBox="0 0 24 24" version="1.1" xmlns="http://www.w3.org/2000/svg" xmlns:xlink="http://www.w3.org/1999/xlink">
    <!-- Generator: Sketch 58 (84663) - https://sketch.com -->
    <title>Icon / playlist_list</title>
    <desc>Created with Sketch.</desc>
    <g id="Icon-/-playlist_list" stroke="none" stroke-width="1" fill="none" fill-rule="evenodd">
        <path d="M15,15 C15.55,15 16,15.45 16,16 C16,16.5107143 15.6119898,16.9352041 15.116199,16.9932398 L15,17 L9,17 C8.45,17 8,16.55 8,16 C8,15.4892857 8.3880102,15.0647959 8.88380102,15.0067602 L9,15 L15,15 Z M5,15 C5.55228475,15 6,15.4477153 6,16 C6,16.5522847 5.55228475,17 5,17 C4.44771525,17 4,16.5522847 4,16 C4,15.4477153 4.44771525,15 5,15 Z M19,11 C19.55,11 20,11.45 20,12 C20,12.5107143 19.6119898,12.9352041 19.116199,12.9932398 L19,13 L9,13 C8.45,13 8,12.55 8,12 C8,11.4892857 8.3880102,11.0647959 8.88380102,11.0067602 L9,11 L19,11 Z M5,11 C5.55228475,11 6,11.4477153 6,12 C6,12.5522847 5.55228475,13 5,13 C4.44771525,13 4,12.5522847 4,12 C4,11.4477153 4.44771525,11 5,11 Z M19,7 C19.55,7 20,7.45 20,8 C20,8.51071429 19.6119898,8.93520408 19.116199,8.9932398 L19,9 L9,9 C8.45,9 8,8.55 8,8 C8,7.48928571 8.3880102,7.06479592 8.88380102,7.0067602 L9,7 L19,7 Z M5,7 C5.55228475,7 6,7.44771525 6,8 C6,8.55228475 5.55228475,9 5,9 C4.44771525,9 4,8.55228475 4,8 C4,7.44771525 4.44771525,7 5,7 Z" id="Combined-Shape" fill="#000000" fill-rule="nonzero"></path>
    </g>
</svg>