<?xml version="1.0" encoding="UTF-8"?>
<svg width="24px" height="24px" viewBox="0 0 24 24" version="1.1" xmlns="http://www.w3.org/2000/svg" xmlns:xlink="http://www.w3.org/1999/xlink">
    <!-- Generator: Sketch 58 (84663) - https://sketch.com -->
    <title>Icon / playlist_delete</title>
    <desc>Created with Sketch.</desc>
    <g id="Icon-/-playlist_delete" stroke="none" stroke-width="1" fill="none" fill-rule="evenodd">
        <path d="M13,9 L3,9 C2.45,9 2,9.45 2,10 C2,10.55 2.45,11 3,11 L13,11 C13.55,11 14,10.55 14,10 C14,9.45 13.55,9 13,9 Z M13,5 L3,5 C2.45,5 2,5.45 2,6 C2,6.55 2.45,7 3,7 L13,7 C13.55,7 14,6.55 14,6 C14,5.45 13.55,5 13,5 Z M18.4142136,16 L20.5355339,13.8786797 C20.9244426,13.4897709 20.9244426,12.8533748 20.5355339,12.4644661 C20.1466252,12.0755574 19.5102291,12.0755574 19.1213203,12.4644661 L17,14.5857864 L14.8786797,12.4644661 C14.4897709,12.0755574 13.8533748,12.0755574 13.4644661,12.4644661 C13.0755574,12.8533748 13.0755574,13.4897709 13.4644661,13.8786797 L15.5857864,16 L13.4644661,18.1213203 C13.0755574,18.5102291 13.0755574,19.1466252 13.4644661,19.5355339 C13.8533748,19.9244426 14.4897709,19.9244426 14.8786797,19.5355339 L17,17.4142136 L19.1213203,19.5355339 C19.5102291,19.9244426 20.1466252,19.9244426 20.5355339,19.5355339 C20.9244426,19.1466252 20.9244426,18.5102291 20.5355339,18.1213203 L18.4142136,16 Z M3,15 L9,15 C9.55,15 10,14.55 10,14 C10,13.45 9.55,13 9,13 L3,13 C2.45,13 2,13.45 2,14 C2,14.55 2.45,15 3,15 Z" id="Shape" fill="#000000" fill-rule="nonzero"></path>
    </g>
</svg>